<svg xmlns="http://www.w3.org/2000/svg" viewBox="0 0 728.14 165.59"><defs><style>.a{fill:#c41230;}.b{fill:#231f20;}</style></defs><title>Carnegie Mellon University School of Engineering</title><path class="a" d="M213.53 18.71v26.83H218v1.77h-17.88v-1.77h4.47V20.6h-3.47v-1.89h12.41M36.93 1.38h-1.61c-.07 1.38-.79 2-2.17 2C30.39 3.35 26.35 0 21.62 0 8.15 0 0 13.27 0 25s7.75 23.39 20.76 23.39c7.88 0 10.84-3.75 12.94-3.75 1.38 0 1.63 1.22 1.63 2.69h1.78V31.21h-1.76l-.39 2.23c-.93 5.33-5.06 13.19-13.51 13.19-7.49 0-10.38-6.48-10.38-22.45 0-16.76 3.94-22.4 10.58-22.4 7.49 0 12.64 8.4 13.69 15.1h1.62zM59.97 39.6c-.13 3.44-2.07 6.25-5.12 6.25-4.41 0-4.6-3.72-4.6-6.56 0-3.44.39-5.7 4.6-6.16l5.12-.52zm11.83 2.14c0 1.68-1.11 3.63-1.84 3.63-1.17 0-1.43-1.23-1.43-3.24V27.22c0-7.39-6.94-9.2-13.61-9.2-6.48 0-11.21 3.17-11.21 6.8A3.91 3.91 0 0 0 47.92 29a3.69 3.69 0 0 0 4-3.89c0-3.3-3.42-3.34-3.42-3.42 0-1.47 3.81-1.94 6-1.94 4.86 0 5.51 1.79 5.51 5.68v5.44l-6.35.52c-5.9.45-12.32 2-12.32 8.75 0 5.64 5.06 7.91 10 7.91 2.53 0 7-1 8.69-4.08a6.65 6.65 0 0 0 6.48 4.08c4.21 0 6.93-2.53 6.93-6.35zm602.73-23.13v26.84H679v1.77h-17.89v-1.77h4.47V20.5h-4.47v-1.89h13.42M285.97 32.45l10.74-30.72h14.81v1.83h-4.24v42h4.17v1.79h-17.77v-1.82H298V4h-.13l-15.1 43.29h-1.75L265.54 3.25h-.09V40c0 5.25 1.36 5.53 4.86 5.53h.2v1.79h-11.25v-1.79c3.7 0 4.39-2.16 4.39-4.95v-37h-4.39V1.69h16.26zm35.87-2.58v-4.35c0-4.34 1.88-5.7 4.08-5.7 3.11 0 4.08 2.14 4.08 5.7v4.36zm0 1.76h17.89c-.07-7-6.55-13.74-13.35-13.61-7.65 0-14.26 6.61-14.26 15.36 0 8.43 6.16 14.71 14.45 14.71 8 0 11.93-4.93 13.35-11.34h-1.77c-1.42 6-4.59 9.45-9.64 9.45-6 0-6.68-4.72-6.68-9.13zm269.25-1.86v-4.36c0-4.34 1.88-5.7 4.08-5.7 3.11 0 4.08 2.14 4.08 5.7v4.36zm0 1.76h17.89c-.07-7-6.55-13.74-13.35-13.61-7.65 0-14.26 6.61-14.26 15.36 0 8.43 6.16 14.71 14.45 14.71 8 0 11.93-4.93 13.35-11.34h-1.72c-1.42 6-4.59 9.45-9.64 9.45-6 0-6.68-4.72-6.68-9.13z"/><path class="a" d="M339.83 1.79v1.65h4.48v42.04h-4.48v1.84h17.89v-1.84h-4.47V1.79h-13.42m19.14 0v1.65h4.47v42.04h-4.47v1.84h17.89v-1.84h-4.47V1.79h-13.42m38.48 37.68c0 4.86-2 6.87-5.31 6.87s-5.31-2-5.31-6.87V26.71c0-4.86 2-6.87 5.31-6.87s5.31 2 5.31 6.87zm10.11-6.41c0-8.88-6.87-15-15.42-15s-15.42 6.16-15.42 15 6.87 15 15.42 15 15.42-6.16 15.42-15m46.5-29.78h4.53v28.79c0 10 6.93 16.14 17.5 16.14 11.93 0 17.11-6.29 17.11-15.81V7.78c0-3.76 1-4.5 3.37-4.5h1.31V1.54h-11.43v1.74h.82c3.3 0 3.76 1 3.76 4.76V33c0 8.82-5.47 12.83-11 12.83-9.46 0-11.34-6.35-11.9-14.65V3.28h4.25V1.54h-18.32zm112.28 44.67h1.75l9.59-22.68c1.94-4.24 3-4.77 4.47-4.84h.58v-1.78h-10.1v1.79h1.23c1.88 0 2.74-.12 2.74 1.56a10.5 10.5 0 0 1-1.1 3.94l-4.4 10.37-7.05-15.87h3.6v-1.79h-16.28v1.79h3zm72.22 0h1.54a2.07 2.07 0 0 1 2.29-1.55c1.69 0 3.7 1.55 7.32 1.55a10.57 10.57 0 0 0 10.37-10.63c0-7.91-5.44-8.49-12.38-9.46-3.63-.52-5.68-1-5.68-3.89 0-3 2.66-4.32 6.16-4.32 4.86 0 6.75 3.22 8.36 7.44h1.53v-9.2h-1.47c0 .78-.67 1.43-1.9 1.43-2.08 0-3.76-1.43-6.74-1.43a9.63 9.63 0 0 0-9.66 9.66c0 8.36 6.35 9.08 11.28 9.66 4.67.58 6.35.88 6.35 3.86 0 3.43-2.85 5-6.35 5-4.92 0-8.31-4.26-9.48-9h-1.54zM549 18.61v26.84h4.47v1.77h-17.89v-1.77h4.47V20.5h-4.47v-1.89H549m-8.93-8.94a4.46 4.46 0 1 0 4.46-4.47 4.45 4.45 0 0 0-4.46 4.47m125.51 0a4.46 4.46 0 1 0 4.46-4.47 4.45 4.45 0 0 0-4.46 4.47M149.79 29.86v-4.35c0-4.34 1.88-5.7 4.08-5.7 3.11 0 4.08 2.14 4.08 5.7v4.35zm0 1.76h17.89c-.07-7-6.55-13.74-13.35-13.61-7.65 0-14.26 6.61-14.26 15.36 0 8.43 6.16 14.71 14.45 14.71 8 0 11.93-4.93 13.35-11.34h-1.77c-1.42 6-4.59 9.45-9.64 9.45-6 0-6.68-4.72-6.68-9.13zm78.25-1.76v-4.35c0-4.34 1.88-5.7 4.08-5.7s4.08 1.34 4.08 5.7v4.35zm0 1.76h17.89c-.07-7-6.55-13.74-13.35-13.61-7.65 0-14.26 6.61-14.26 15.36 0 8.43 6.16 14.71 14.45 14.71 8 0 11.93-4.93 13.35-11.34h-1.77c-1.42 6-4.59 9.45-9.64 9.45-6 0-6.68-4.72-6.68-9.13zm301.81 13.84V28c0-7-3-10.27-9.14-10.27-4.35 0-8.75 2.49-10.5 6.25V18.7h-13.42v1.75h4.47v25h-4.47v1.75h17.24v-1.74h-3.83v-17.1c.56-2.41 3.61-8 7.15-8 2.35 0 3.55.81 3.55 5.16v19.9h-3.7v1.75h17.11v-1.71z"/><path class="a" d="M420.94 18.8v5.25c1.75-3.76 6.15-6.25 10.5-6.25 6.16 0 9.14 3.27 9.14 10.27v17.5h4.47v1.75h-17.11v-1.75h3.7v-19.9c0-4.35-1.19-5.16-3.55-5.16-3.54 0-6.59 5.55-7.15 8v17.1h3.83v1.75h-17.25v-1.79h4.47v-25h-4.47V18.8zM135.53 45.56v-17.5c0-7-3-10.27-9.14-10.27-4.35 0-8.75 2.49-10.5 6.25v-5.25h-13.44v1.75h4.47v25h-4.47v1.75h17.24v-1.73h-3.83v-17.1c.56-2.41 3.61-8 7.15-8 2.35 0 3.55.81 3.55 5.16v19.9h-3.7v1.75h17.11v-1.71zm69.09-35.72a4.46 4.46 0 1 0 4.46-4.47 4.45 4.45 0 0 0-4.46 4.47m513.41 8.78v1.88c2.76 0 4 .25 4 1.5a10.5 10.5 0 0 1-1.1 3.94l-4.4 10.37-7-15.81h3.68v-1.88h-22.4V4.72h-1.16c0 6.87-4.67 13.93-11.21 13.93v1.85h3.44v20.06a7.1 7.1 0 0 0 7.13 7.39 9.22 9.22 0 0 0 8.62-5l-1.39-.76c-.78 1.17-1.81 2.72-3.43 2.72-1.3 0-2-.92-2-3.06V20.51h9l11.84 27.31-4.1 9.65a.55.55 0 0 1-.49.32.54.54 0 0 1-.51-.37 4.46 4.46 0 1 0-6.3 5.18l.14.06.26.12a4.51 4.51 0 0 0 1.63.34c3.76.32 5.69-2.46 7-5.29.3-.64.57-1.29.83-1.9.57-1.37 1.56-3.73 2.73-6.48l1.13-2.64 9.12-21.55c1.94-4.24 2.69-4.78 5-4.78v-1.86zm-622.09-.91a9.29 9.29 0 0 0-8.56 6.09h-.13v-4.93H73.97v1.81h4.48v24.94h-4.48v1.78h19.38v-1.78h-6v-14c0-4.17 1.09-8.44 3.83-10.79a.53.53 0 0 1 .85.5 6.22 6.22 0 0 0-.35 1.85 4.19 4.19 0 0 0 4.41 4.21 4.68 4.68 0 0 0 4.93-4.73c.04-3.07-2.03-4.95-5.08-4.95zm97.51 2.11c.13 0 .29-.11.39 0a.27.27 0 0 1 0 .35 2.78 2.78 0 0 0-.24 2.38 2.74 2.74 0 0 0 2 1.77 2.79 2.79 0 0 0 3.47-2.72 3 3 0 0 0-1.53-2.53 5.29 5.29 0 0 0-2.85-.75 7.68 7.68 0 0 0-4.76 2q-.44-.32-.92-.6a14 14 0 0 0-7.18-1.72c-5.44 0-11.28 3.56-11.28 9.46a8.42 8.42 0 0 0 5.38 7.91v.13a7.08 7.08 0 0 0-6.48 7.5c0 3.24 1.49 5.7 4.22 6.48v.13c-2.59.71-5.58 3.31-5.58 6.42 0 4.8 5.64 8.49 12.83 8.49 9 0 14.91-6.09 14.91-14 0-6.29-3.11-9.14-9.46-9h-10.76c-1.62 0-2.7-.07-2.7-1.82s2.49-3.37 4.95-3.37a4.87 4.87 0 0 1 1.32.39 8.35 8.35 0 0 0 2.66.39c5.57 0 11.54-3.18 11.54-9.33a9.62 9.62 0 0 0-2.37-6.13.22.22 0 0 1 0-.33 13.23 13.23 0 0 1 1.69-1.1 3.64 3.64 0 0 1 .76-.35zm-8.61 29.82c6.48 0 8.2.27 8.2 4.23 0 4.73-5.8 9.07-12.34 9.07-5.83 0-8.63-3.58-8.76-6.69 0-2.85 1.42-4.73 3.17-6.61zm1.1-22.14c0 7.53-1.75 7.78-4.08 7.78-2.59 0-4-.5-4-8 0-5.25.58-7.48 4-7.48 3 0 4 .2 4.08 7.66zm445.74-10.05a9.29 9.29 0 0 0-8.56 6.09h-.13v-4.93h-13.28v1.81h4.47v24.94h-4.47v1.77h19.38v-1.77h-6v-14c0-4.17 1.09-8.43 3.82-10.78a.53.53 0 0 1 .85.5 6.23 6.23 0 0 0-.31 1.92 4.19 4.19 0 0 0 4.41 4.21 4.68 4.68 0 0 0 4.93-4.73c.01-3.15-2.07-5.03-5.11-5.03z"/><path class="b" d="M27.35 91.79q-10.23 0-16.1 6.9t-5.87 18.89q0 12.27 5.54 19t15.84 6.78a40.86 40.86 0 0 0 12.57-1.84v3.53a39.1 39.1 0 0 1-13.46 2q-11.45 0-18-7.8T1.25 117.5a35.71 35.71 0 0 1 3.14-15.4 23.52 23.52 0 0 1 9-10.29 25.62 25.62 0 0 1 13.7-3.62 31.48 31.48 0 0 1 14.24 3.13l-1.48 3.61a26.45 26.45 0 0 0-12.5-3.14zm51.27 33.16q0 10.43-4.8 16.28t-13.24 5.86a16.49 16.49 0 0 1-9.37-2.7 17.09 17.09 0 0 1-6.21-7.76 29.54 29.54 0 0 1-2.16-11.68q0-10.42 4.8-16.24t13.16-5.82q8.33 0 13.07 5.9t4.75 16.16zm-31.91 0q0 8.78 3.66 13.7a12.15 12.15 0 0 0 10.36 4.92 12.15 12.15 0 0 0 10.36-4.92q3.66-4.92 3.66-13.7t-3.7-13.68a12.31 12.31 0 0 0-10.39-4.86q-6.69 0-10.32 4.84t-3.62 13.7zm44.5 21.36h-3.68v-61h3.68zm14.94 0h-3.7v-61h3.68zm29.3.78q-8.81 0-13.74-5.72t-4.93-16q0-10.19 4.76-16.32a15.4 15.4 0 0 1 12.83-6.13 13.56 13.56 0 0 1 11.27 5.25q4.13 5.25 4.13 14.26v3.13H120.6q.07 8.78 3.89 13.4t10.96 4.6a32.15 32.15 0 0 0 6.08-.51 35.55 35.55 0 0 0 6.64-2.19v3.53a28.44 28.44 0 0 1-6.32 2.14 33.34 33.34 0 0 1-6.4.56zm-1.08-40.76a11.81 11.81 0 0 0-9.37 4.06q-3.53 4.06-4.13 11.7h25q0-7.41-3-11.58a9.87 9.87 0 0 0-8.55-4.18zm57.28-2.62v2.7l-8.37.55a15.54 15.54 0 0 1 3.35 9.64 13.37 13.37 0 0 1-3.89 10q-3.89 3.82-10.43 3.82a21.48 21.48 0 0 1-3.87-.24 9.74 9.74 0 0 0-3.35 2.86 6 6 0 0 0-1.15 3.49 3.28 3.28 0 0 0 1.47 3 9.57 9.57 0 0 0 4.93.94h7.11q6.58 0 10.08 2.8t3.5 8.29a12 12 0 0 1-5.19 10.41q-5.19 3.66-14.78 3.66-7.62 0-11.81-3.1a10.12 10.12 0 0 1-4.18-8.62 10.54 10.54 0 0 1 2.58-7.29 13.2 13.2 0 0 1 7-4 7.18 7.18 0 0 1-2.92-2.33 5.74 5.74 0 0 1-1.1-3.47q0-4.27 5.17-7.52a11.69 11.69 0 0 1-5.5-4.8 14.26 14.26 0 0 1-2-7.5 13.87 13.87 0 0 1 3.85-10.25q3.85-3.86 10.39-3.86a18.24 18.24 0 0 1 6.17.82zm-32.73 49.81q0 8.78 12.38 8.78 15.92 0 15.92-10.7 0-3.84-2.49-5.56t-8.07-1.72h-6.62q-11.12-.01-11.12 9.2zm3.09-36.52q0 4.94 2.84 7.66a10.53 10.53 0 0 0 7.6 2.72q5.06 0 7.75-2.7t2.7-7.84q0-5.45-2.77-8.17t-7.75-2.72a10 10 0 0 0-7.6 2.92q-2.77 2.91-2.77 8.13zm51.97 30.09q-8.81 0-13.74-5.72t-4.93-16q0-10.19 4.76-16.32a15.4 15.4 0 0 1 12.83-6.13 13.56 13.56 0 0 1 11.27 5.25q4.13 5.25 4.13 14.26v3.13h-29.12q.07 8.78 3.89 13.4t10.92 4.63a32.15 32.15 0 0 0 6.08-.51 35.55 35.55 0 0 0 6.64-2.19v3.53a28.44 28.44 0 0 1-6.32 2.14 33.34 33.34 0 0 1-6.41.53zm-1.08-40.76a11.81 11.81 0 0 0-9.37 4.06q-3.53 4.06-4.13 11.7h25q0-7.41-3-11.58a9.87 9.87 0 0 0-8.5-4.18zm77.49 18.62q0 10.43-4.8 16.28t-13.24 5.86a16.49 16.49 0 0 1-9.37-2.7 17.09 17.09 0 0 1-6.21-7.76 29.54 29.54 0 0 1-2.16-11.68q0-10.42 4.8-16.24t13.16-5.82q8.33 0 13.07 5.9t4.75 16.16zm-31.91 0q0 8.78 3.66 13.7a13.36 13.36 0 0 0 20.71 0q3.66-4.92 3.66-13.7t-3.7-13.68a12.31 12.31 0 0 0-10.36-4.86q-6.69 0-10.32 4.84t-3.68 13.7zm56.6-17.87h-9.52v39.23h-3.68v-39.23h-7.51v-2.27l7.51-1.45v-3.29q0-7.84 2.73-11.5t8.94-3.66a22.11 22.11 0 0 1 6.7 1.09l-.85 3.37a18.84 18.84 0 0 0-5.91-1q-4.31 0-6.12 2.68t-1.8 8.72v4h9.52zm54.74 39.23H340.1V89h29.71v3.7H343.9v21.67h24.47v3.68H343.9v24.57h25.92zm35.98 0v-27.63q0-6.43-2.57-9.35t-8-2.92q-7.25 0-10.62 3.86t-3.37 12.52v23.51h-3.68v-42.6h3.12l.71 5.84h.22q3.94-6.66 14-6.66 13.76 0 13.76 15.56v27.86zm49.11-42.6v2.7l-8.37.55a15.54 15.54 0 0 1 3.35 9.64 13.37 13.37 0 0 1-3.89 10q-3.89 3.82-10.43 3.82a21.49 21.49 0 0 1-3.87-.24 9.74 9.74 0 0 0-3.35 2.86 6 6 0 0 0-1.15 3.49 3.27 3.27 0 0 0 1.47 3 9.57 9.57 0 0 0 4.93.94h7.07q6.58 0 10.08 2.8t3.5 8.29a12 12 0 0 1-5.19 10.41q-5.19 3.66-14.78 3.66-7.62 0-11.81-3.1a10.12 10.12 0 0 1-4.18-8.62 10.54 10.54 0 0 1 2.58-7.29 13.2 13.2 0 0 1 7-4 7.19 7.19 0 0 1-2.92-2.33 5.74 5.74 0 0 1-1.1-3.47q0-4.27 5.17-7.52a11.69 11.69 0 0 1-5.5-4.8 14.26 14.26 0 0 1-2-7.5 13.88 13.88 0 0 1 3.93-10.25q3.85-3.86 10.39-3.86a18.24 18.24 0 0 1 6.17.82zm-32.73 49.81q0 8.78 12.38 8.78 15.92 0 15.92-10.7 0-3.84-2.49-5.56t-8.07-1.72h-6.62q-11.11-.01-11.11 9.2zm3.09-36.52q0 4.94 2.84 7.66a10.54 10.54 0 0 0 7.61 2.72q5.06 0 7.75-2.7t2.7-7.84q0-5.45-2.77-8.17t-7.75-2.72a10 10 0 0 0-7.61 2.92q-2.77 2.91-2.77 8.13zm36.27-25.13q0-3.76 2.34-3.76a2.05 2.05 0 0 1 1.8 1 5 5 0 0 1 .65 2.78 5.13 5.13 0 0 1-.65 2.78 2 2 0 0 1-1.8 1q-2.34 0-2.34-3.8zm4.2 54.43h-3.68v-42.6h3.68zm42.04.01v-27.63q0-6.43-2.57-9.35t-8-2.92q-7.25 0-10.62 3.86t-3.37 12.52v23.51h-3.68v-42.6h3.12l.71 5.84h.22q3.94-6.66 14-6.66 13.76 0 13.76 15.56v27.86zm32.83.78q-8.81 0-13.74-5.72t-4.93-16q0-10.19 4.76-16.32a15.4 15.4 0 0 1 12.83-6.13 13.56 13.56 0 0 1 11.27 5.25q4.13 5.25 4.13 14.26v3.13h-29.12q.07 8.78 3.89 13.4t10.91 4.63a32.16 32.16 0 0 0 6.08-.51 35.57 35.57 0 0 0 6.64-2.19v3.53a28.45 28.45 0 0 1-6.32 2.14 33.34 33.34 0 0 1-6.4.53zm-1.08-40.76a11.81 11.81 0 0 0-9.37 4.06q-3.53 4.06-4.13 11.7h25q0-7.41-3-11.58a9.87 9.87 0 0 0-8.5-4.18zm42.65 40.76q-8.81 0-13.74-5.72t-4.93-16q0-10.19 4.76-16.32a15.4 15.4 0 0 1 12.83-6.13 13.56 13.56 0 0 1 11.27 5.25q4.08 5.22 4.08 14.23v3.13h-29.07q.07 8.78 3.89 13.4t10.91 4.63a32.16 32.16 0 0 0 6.08-.51 35.57 35.57 0 0 0 6.64-2.19v3.53a28.45 28.45 0 0 1-6.32 2.14 33.34 33.34 0 0 1-6.4.56zm-1.08-40.76a11.81 11.81 0 0 0-9.37 4.06q-3.53 4.06-4.13 11.7h25q0-7.41-3-11.58a9.87 9.87 0 0 0-8.5-4.18zm41.35-3.45a30.11 30.11 0 0 1 5.5.55l-.71 3.72a20.54 20.54 0 0 0-5.24-.67 10 10 0 0 0-8.48 4.62 19.56 19.56 0 0 0-3.31 11.68v23.51h-3.68v-42.6h3.12l.37 7.68h.26a17.83 17.83 0 0 1 5.32-6.6 12 12 0 0 1 6.85-1.89zm11.28-11.01q0-3.76 2.34-3.76a2.05 2.05 0 0 1 1.8 1 5 5 0 0 1 .65 2.78 5.13 5.13 0 0 1-.65 2.78 2 2 0 0 1-1.8 1q-2.35 0-2.34-3.8zm4.2 54.43h-3.68v-42.6h3.68zm40.58.01v-27.63q0-6.43-2.57-9.35t-8-2.92q-7.25 0-10.62 3.86t-3.37 12.52v23.51h-3.68v-42.6h3.18l.71 5.84h.22q3.94-6.66 14-6.66 13.76 0 13.76 15.56v27.86zm48.27-42.6v2.7l-8.33.59a15.54 15.54 0 0 1 3.35 9.64 13.37 13.37 0 0 1-3.89 10q-3.89 3.82-10.43 3.82a21.48 21.48 0 0 1-3.87-.24 9.74 9.74 0 0 0-3.35 2.86 6 6 0 0 0-1.15 3.49 3.28 3.28 0 0 0 1.47 3 9.57 9.57 0 0 0 4.93.94h7.07q6.58 0 10.08 2.8t3.5 8.29a12 12 0 0 1-5.19 10.41q-5.19 3.66-14.78 3.66-7.62 0-11.81-3.1a10.12 10.12 0 0 1-4.18-8.62 10.54 10.54 0 0 1 2.58-7.29 13.2 13.2 0 0 1 7-4 7.18 7.18 0 0 1-2.92-2.33 5.74 5.74 0 0 1-1.1-3.47q0-4.27 5.17-7.52a11.68 11.68 0 0 1-5.5-4.8 14.26 14.26 0 0 1-2-7.5 13.88 13.88 0 0 1 3.85-10.25q3.85-3.86 10.39-3.86a18.24 18.24 0 0 1 6.17.82zm-32.73 49.81q0 8.78 12.38 8.78 15.92 0 15.92-10.7 0-3.84-2.49-5.56t-8.07-1.72h-6.62q-11.12-.01-11.11 9.2zm3.09-36.52q0 4.94 2.84 7.66a10.54 10.54 0 0 0 7.61 2.72q5.06 0 7.75-2.7t2.7-7.84q0-5.45-2.77-8.17t-7.75-2.72a10 10 0 0 0-7.6 2.92q-2.78 2.91-2.78 8.13z"/></svg>