<svg width="107" height="32" viewBox="0 0 107 32" fill="none" xmlns="http://www.w3.org/2000/svg">
<path fillRule="evenodd" clipRule="evenodd" d="M-0.365723 -0.330322H2.63834V14.8054H-0.365723V-0.330322ZM13.6492 1.16887V14.8054H10.6451V2.68858H7.62066V14.8054H4.61655V-0.330322H12.1574C12.5661 -0.330322 12.9204 -0.186568 13.2201 0.10095C13.5062 0.402159 13.6492 0.758131 13.6492 1.16887ZM24.6601 -0.330322H15.6275V2.68858H18.6315V14.8054H21.656V2.68858H24.6601V-0.330322ZM35.671 2.68858V-0.330322H26.6383V14.8054H35.671V11.7864H29.6424V8.74701H34.1792V5.72806H29.6424V2.68858H35.671ZM45.1901 7.22725C45.5988 7.22725 45.953 7.37788 46.2527 7.67908C46.5388 7.9666 46.6819 8.32257 46.6819 8.74701V14.8054H43.6778V8.74701H40.6533V14.8054H37.6492V-0.330322H45.1901C45.5988 -0.330322 45.953 -0.186568 46.2527 0.10095C46.5388 0.402159 46.6819 0.758131 46.6819 1.16887V5.72806C46.6819 6.1388 46.5388 6.49477 46.2527 6.79598C45.953 7.08349 45.5988 7.22725 45.1901 7.22725ZM43.6778 5.72806V2.68858H40.6533V5.72806H43.6778ZM57.6927 2.68858V-0.330322H48.6601V14.8054H57.6927V11.7864H51.6641V8.74701H56.2009V5.72806H51.6641V2.68858H57.6927ZM65.6995 4.20834V2.68858H62.675V5.72806H67.2118C67.6205 5.72806 67.9748 5.87181 68.2745 6.15933C68.5606 6.46054 68.7036 6.81651 68.7036 7.22725V13.2856C68.7036 13.7101 68.5606 14.066 68.2745 14.3535C67.9748 14.6548 67.6205 14.8054 67.2118 14.8054H61.1832C60.7608 14.8054 60.4067 14.6548 60.1206 14.3535C59.8208 14.066 59.6709 13.7101 59.6709 13.2856V10.2667H62.675V11.7864H65.6995V8.74701H61.1832C60.7608 8.74701 60.4067 8.60325 60.1206 8.31573C59.8208 8.01452 59.6709 7.65168 59.6709 7.22725V1.16887C59.6709 0.758131 59.8208 0.402159 60.1206 0.10095C60.4067 -0.186568 60.7608 -0.330322 61.1832 -0.330322H67.2118C67.6205 -0.330322 67.9748 -0.186568 68.2745 0.10095C68.5606 0.402159 68.7036 0.758131 68.7036 1.16887V4.20834H65.6995ZM79.7145 -0.330322H70.6818V2.68858H73.6859V14.8054H76.7104V2.68858H79.7145V-0.330322ZM81.6927 -0.330322H84.6968V14.8054H81.6927V-0.330322ZM95.7077 1.16887V14.8054H92.7036V2.68858H89.679V14.8054H86.675V-0.330322H94.2159C94.6246 -0.330322 94.9788 -0.186568 95.2785 0.10095C95.5646 0.402159 95.7077 0.758131 95.7077 1.16887ZM103.714 4.20834V2.68858H100.69V11.7864H103.714V8.74701H102.202V5.72806H106.719V13.2856C106.719 13.7101 106.575 14.066 106.289 14.3535C105.99 14.6548 105.635 14.8054 105.227 14.8054H99.1981C98.7758 14.8054 98.4216 14.6548 98.1355 14.3535C97.8357 14.066 97.6858 13.7101 97.6858 13.2856V1.16887C97.6858 0.758131 97.8357 0.402159 98.1355 0.10095C98.4216 -0.186568 98.7758 -0.330322 99.1981 -0.330322H105.227C105.635 -0.330322 105.99 -0.186568 106.289 0.10095C106.575 0.402159 106.719 0.758131 106.719 1.16887V4.20834H103.714ZM8.66697 20.2134V17.1945H-0.365723V32.3302H10.0109L8.84135 29.3113H2.63834V26.2718H7.17515V23.2529H2.63834V20.2134H8.66697ZM19.6778 18.6937V32.3302H16.6738V20.2134H13.6492V29.2375V32.3302H11.7096L10.6451 29.2375V17.1945H18.186C18.5947 17.1945 18.949 17.3382 19.2487 17.6258C19.5348 17.927 19.6778 18.2829 19.6778 18.6937ZM27.6846 21.7332V20.2134H24.6601V29.3113H27.6846V26.2718H26.1724V23.2529H30.6887V30.8105C30.6887 31.2349 30.5456 31.5909 30.2595 31.8784C29.9598 32.1796 29.6056 32.3302 29.1969 32.3302H23.1683C22.7459 32.3302 22.3917 32.1796 22.1056 31.8784C21.8059 31.5909 21.656 31.2349 21.656 30.8105V18.6937C21.656 18.2829 21.8059 17.927 22.1056 17.6258C22.3917 17.3382 22.7459 17.1945 23.1683 17.1945H29.1969C29.6056 17.1945 29.9598 17.3382 30.2595 17.6258C30.5456 17.927 30.6887 18.2829 30.6887 18.6937V21.7332H27.6846ZM32.6669 17.1945H35.671V32.3302H32.6669V17.1945ZM46.6819 18.6937V32.3302H43.6778V20.2134H40.6533V32.3302H37.6492V17.1945H45.1901C45.5988 17.1945 45.953 17.3382 46.2527 17.6258C46.5388 17.927 46.6819 18.2829 46.6819 18.6937ZM57.6927 20.2134V17.1945H48.6601V32.3302H57.6927V29.3113H51.6641V26.2718H56.2009V23.2529H51.6641V20.2134H57.6927ZM68.7036 20.2134V17.1945H59.6709V32.3302H68.7036V29.3113H62.675V26.2718H67.2118V23.2529H62.675V20.2134H68.7036ZM78.2227 24.7521C78.6314 24.7521 78.9856 24.9027 79.2853 25.2039C79.5715 25.4914 79.7145 25.8474 79.7145 26.2718V32.3302H76.7104V26.2718H73.6859V32.3302H70.6818V17.1945H78.2227C78.6314 17.1945 78.9856 17.3382 79.2853 17.6258C79.5715 17.927 79.7145 18.2829 79.7145 18.6937V23.2529C79.7145 23.6636 79.5715 24.0196 79.2853 24.3208C78.9856 24.6083 78.6314 24.7521 78.2227 24.7521ZM76.7104 23.2529V20.2134H73.6859V23.2529H76.7104ZM81.6927 17.1945H84.6968V32.3302H81.6927V17.1945ZM95.7077 18.6937V32.3302H92.7036V20.2134H89.679V32.3302H86.675V17.1945H94.2159C94.6246 17.1945 94.9788 17.3382 95.2785 17.6258C95.5646 17.927 95.7077 18.2829 95.7077 18.6937ZM103.714 21.7332V20.2134H100.69V29.3113H103.714V26.2718H102.202V23.2529H106.719V30.8105C106.719 31.2349 106.575 31.5909 106.289 31.8784C105.99 32.1796 105.635 32.3302 105.227 32.3302H99.1981C98.7758 32.3302 98.4216 32.1796 98.1355 31.8784C97.8357 31.5909 97.6858 31.2349 97.6858 30.8105V18.6937C97.6858 18.2829 97.8357 17.927 98.1355 17.6258C98.4216 17.3382 98.7758 17.1945 99.1981 17.1945H105.227C105.635 17.1945 105.99 17.3382 106.289 17.6258C106.575 17.927 106.719 18.2829 106.719 18.6937V21.7332H103.714Z" fill="white"/>
</svg>
